<svg width="123" height="123" viewBox="0 0 123 123" fill="none" xmlns="http://www.w3.org/2000/svg">
<g clip-path="url(#clip0)">
<path d="M83.9074 26.5363H39.0926C37.9681 26.5363 37.0555 25.6237 37.0555 24.4992V13.3566C37.0555 9.39054 40.2822 6.16591 44.2463 6.16591H49.4591C50.9746 6.16591 52.4229 5.4285 53.3315 4.19202C55.2402 1.60091 58.2937 0.0547943 61.5 0.0547943C64.7063 0.0547943 67.7598 1.60091 69.6665 4.19202C70.577 5.4285 72.0254 6.16591 73.5409 6.16591H78.7537C82.7198 6.16591 85.9444 9.39054 85.9444 13.3566V24.4992C85.9444 25.6237 85.0318 26.5363 83.9074 26.5363ZM41.1296 22.4622H81.8704V13.3566C81.8704 11.6394 80.4709 10.24 78.7537 10.24H73.5409C70.7359 10.24 68.0613 8.88128 66.3868 6.60794C65.2257 5.03128 63.4454 4.12887 61.5 4.12887C59.5546 4.12887 57.7742 5.03128 56.6131 6.60794C54.9407 8.88128 52.2661 10.24 49.4591 10.24H44.2463C42.5291 10.24 41.1296 11.6394 41.1296 13.3566V22.4622Z" fill="white"/>
<path d="M65.5739 20.4243H57.4258C56.3014 20.4243 55.3888 19.5117 55.3888 18.3873V10.2391C55.3888 9.1147 56.3014 8.2021 57.4258 8.2021H65.5739C66.6984 8.2021 67.611 9.1147 67.611 10.2391V18.3873C67.611 19.5117 66.6984 20.4243 65.5739 20.4243ZM59.4628 16.3503H63.5369V12.2762H59.4628V16.3503Z" fill="white"/>
<path d="M94.0925 114.128H28.9073C25.538 114.128 22.7962 111.386 22.7962 108.017V24.4982C22.7962 21.129 25.538 18.3871 28.9073 18.3871H39.0925C40.2169 18.3871 41.1295 19.2997 41.1295 20.4241V22.4612H81.8703V20.4241C81.8703 19.2997 82.7828 18.3871 83.9073 18.3871H94.0925C97.4617 18.3871 100.204 21.129 100.204 24.4982L100.159 108.477C100.159 108.55 100.155 108.624 100.147 108.697C99.7962 111.793 97.1949 114.128 94.0925 114.128ZM28.9073 22.4612C27.7828 22.4612 26.8702 23.3758 26.8702 24.4982V108.017C26.8702 109.139 27.7828 110.054 28.9073 110.054H94.0925C95.0886 110.054 95.9299 109.32 96.0847 108.334L96.1295 80.1765V24.4982C96.1295 23.3758 95.2149 22.4612 94.0925 22.4612H85.9443V24.4982C85.9443 25.6227 85.0317 26.5352 83.9073 26.5352H39.0925C37.968 26.5352 37.0554 25.6227 37.0554 24.4982V22.4612H28.9073ZM98.1217 108.471H98.1421H98.1217Z" fill="white"/>
<path d="M98.1668 122.277H24.8334C19.2173 122.277 14.6483 117.708 14.6483 112.092V20.425C14.6483 14.8089 19.2173 10.2399 24.8334 10.2399H39.0927C40.2171 10.2399 41.1297 11.1524 41.1297 12.2769V22.4621H81.8705V12.2769C81.8705 11.1524 82.7831 10.2399 83.9075 10.2399H98.1668C103.783 10.2399 108.352 14.8089 108.352 20.425V112.092C108.352 117.708 103.783 122.277 98.1668 122.277ZM24.8334 14.3139C21.4642 14.3139 18.7223 17.0558 18.7223 20.425V112.092C18.7223 115.461 21.4642 118.203 24.8334 118.203H98.1668C101.536 118.203 104.278 115.461 104.278 112.092V20.425C104.278 17.0558 101.536 14.3139 98.1668 14.3139H85.9446V24.4991C85.9446 25.6236 85.032 26.5361 83.9075 26.5361H39.0927C37.9683 26.5361 37.0557 25.6236 37.0557 24.4991V14.3139H24.8334Z" fill="white"/>
<path d="M73.3257 44.3453C73.3257 50.8768 68.0315 56.1709 61.5 56.1709C54.9686 56.1709 49.6744 50.8768 49.6744 44.3453C49.6744 37.8139 54.9686 32.5197 61.5 32.5197C68.0315 32.5197 73.3257 37.8139 73.3257 44.3453Z" fill="white"/>
<path d="M69.9468 62.9269H53.0531C45.5887 62.9269 39.5382 68.9775 39.5382 76.4419V110.229H47.985V83.1994C47.985 81.3335 49.4979 79.8206 51.3637 79.8206C53.2296 79.8206 54.7425 81.3335 54.7425 83.1994V110.229H68.2574V83.1994C68.2574 81.3335 69.7703 79.8206 71.6362 79.8206C73.5021 79.8206 75.0149 81.3335 75.0149 83.1994V110.229H83.4618V76.4419C83.4618 68.9775 77.4112 62.9269 69.9468 62.9269Z" fill="white"/>
</g>
<defs>
<clipPath id="clip0">
<rect width="122.222" height="122.222" fill="white" transform="translate(0.388855 0.0548096)"/>
</clipPath>
</defs>
</svg>
